<svg enable-background="new 0 0 48 48" fill="#FFFFFF" height="48px" id="Layer_1" version="1.1" viewBox="0 0 48 48" width="48px" xml:space="preserve" xmlns="http://www.w3.org/2000/svg" xmlns:xlink="http://www.w3.org/1999/xlink"><path d="M34.56,32.27c-7.81-0.3-10.47-6.22-10.56-6.44c-0.1,0.22-2.76,6.14-10.56,6.44c-7.95,0.3-15.7-7.18-12.19-12.93  c3.4-5.58,6.59-1.75,4.68-1.06c-0.56,0.2-1.16,0.56-1.59,1.18c-1.1,1.77-0.12,7.14,7.13,0.26c8.24-7.8,12.54-1.8,12.54-1.8  s4.3-6,12.54,1.8c7.25,6.87,8.23,1.5,7.13-0.26c-0.43-0.63-1.03-0.98-1.59-1.18c-1.91-0.69,1.28-4.52,4.68,1.06  C50.26,25.09,42.52,32.57,34.56,32.27z"/></svg>